<svg xmlns="http://www.w3.org/2000/svg" width="256" height="256" viewBox="0 0 100 100"><rect width="100" height="100" rx="50" fill="#e42c64"></rect><path d="M47.20 33.34L47.20 33.34Q47.20 34.72 44.05 40.36Q40.90 46.00 34.79 55.32L34.79 55.32L34.79 68.99Q34.28 69.18 33.43 69.34Q32.58 69.50 31.70 69.50L31.70 69.50Q29.75 69.50 28.93 68.77Q28.11 68.05 28.11 66.41L28.11 66.41L28.11 55.39Q26.41 52.87 24.52 49.94Q22.63 47.01 20.80 44.01Q18.97 41.02 17.37 38.16Q15.76 35.29 14.63 32.83L14.63 32.83Q15.00 31.95 15.89 31.23Q16.77 30.50 18.22 30.50L18.22 30.50Q19.73 30.50 20.61 31.23Q21.49 31.95 22.44 33.65L22.44 33.65Q23.19 34.97 24.39 37.18Q25.59 39.38 26.91 41.75Q28.23 44.11 29.43 46.22Q30.63 48.33 31.32 49.46L31.32 49.46L31.57 49.46Q32.96 46.94 34.22 44.64Q35.48 42.35 36.61 40.14Q37.75 37.94 38.88 35.73Q40.01 33.53 41.15 31.19L41.15 31.19Q41.72 30.88 42.50 30.69Q43.29 30.50 43.98 30.50L43.98 30.50Q45.43 30.50 46.31 31.26Q47.20 32.01 47.20 33.34ZM85.37 68.24L85.37 68.24Q84.68 68.81 83.61 69.18Q82.54 69.56 81.09 69.56L81.09 69.56Q79.33 69.56 78.04 68.90Q76.74 68.24 75.67 66.41L75.67 66.41L65.28 48.33Q64.58 47.13 63.86 45.81Q63.14 44.49 62.47 43.16Q61.81 41.84 61.21 40.61Q60.62 39.38 60.17 38.44L60.17 38.44L59.86 38.50Q60.17 41.78 60.30 45.53Q60.43 49.28 60.43 52.61L60.43 52.61L60.43 69.06Q59.99 69.18 59.14 69.34Q58.28 69.50 57.40 69.50L57.40 69.50Q55.51 69.50 54.66 68.81Q53.81 68.11 53.81 66.47L53.81 66.47L53.81 31.95Q54.44 31.26 55.61 30.85Q56.77 30.44 58.10 30.44L58.10 30.44Q59.86 30.44 61.18 31.07Q62.51 31.70 63.58 33.53L63.58 33.53L74.03 51.67Q74.73 52.87 75.42 54.19Q76.11 55.51 76.78 56.84Q77.44 58.16 78.04 59.39Q78.63 60.62 79.07 61.56L79.07 61.56L79.33 61.50Q78.82 56.71 78.76 52.02Q78.70 47.32 78.70 42.85L78.70 42.85L78.70 30.88Q79.20 30.75 80.02 30.60Q80.84 30.44 81.78 30.44L81.78 30.44Q83.67 30.44 84.52 31.13Q85.37 31.82 85.37 33.46L85.37 33.46L85.37 68.24Z" fill="#fff"></path></svg>